<?xml version="1.0" encoding="UTF-8"?>
<svg id="Layer_1" xmlns="http://www.w3.org/2000/svg" version="1.1" viewBox="0 0 600 600">
  <!-- Generator: Adobe Illustrator 29.2.1, SVG Export Plug-In . SVG Version: 2.1.0 Build 116)  -->
  <defs>
    <style>
      .st0 {
        fill: #f88;
      }

      .st1 {
        fill: #ffac9f;
      }
    </style>
  </defs>
  <rect class="st1" width="600" height="600"/>
  <g>
    <path class="st0" d="M521.9,2.8c-.2-1-.4-1.9-.6-2.8h-79.2c1.2,1.7,2.4,3.4,3.6,5.1-6.7.2-13.4.5-21,2-23.3,4.2-42.1,23.4-41.5,48.5.6,22.6,15.9,36.7,26.5,53.6.3.5.5.9.7,1.2-1.6.4-3.7.7-6,.9-16.3,1.2-33.2-1-48.5,8.4-16.1,10-21,30.4-13.2,46.9,3.4,7.6,7.8,13.5,12.3,19.7,7.2,9.9,20.8,25.8,2.6,30.5-12.2,2.8-26.5.6-40,3.5-18.4,3.5-28.3,20.8-19.9,38.1,3.1,6.8,7.3,12.2,11.3,17.7.3.4.5.7.8,1.1.4.5.7,1,1.1,1.5,0,0,0,0,0,.1,0,0,.1.1.2.2.6.8,1.2,1.6,1.8,2.5.9,1.3,1.8,2.6,2.7,3.9,2.1,3.1,3.9,6.3,5.2,9.8.8,2.2,1.4,4.4,1.6,6.8,0,0,0,.1,0,.2.2,3-.3,6.1-1.6,9,0,.2-.2.5-.3.7.2-.3.4-.6.5-.8.1-.2.2-.3.3-.5,1.4-2.5,2.2-5.2,2.4-7.9.1-1.2.1-2.5,0-3.7h0c0-.1,0-.2,0-.3h0c-.2-2.8-.9-5.5-1.9-8.3-.6-1.7-1.3-3.4-2-5.1-1.9-4.2-4.2-8.3-6.2-12-5-10-13.7-22.6-6.7-33,8.9-12.9,37.3-1.7,53.8-4.3,15.6-1.1,28.8-13.2,29.4-29.4.6-12.9-6.6-25.4-11.8-35-2.8-5.1-5.8-10.6-7.2-15.7-.6-2.1-.6-3.7-.3-4.4.3-.8.5-.8,1.1-1.4.6-.6.8-.3,1.4-.5,6-1,13.5.2,20.2.8,15.2,1.8,31.9,2.8,45.8-7.2,16.4-11.8,20.8-32.7,14.4-50.6-2.9-8.7-6.8-15.5-10.7-22.7-.9-1.6-1.8-3.3-2.7-5,11.9,1.2,23.8,3.2,36.8,1.2,30.5-4.4,50.7-33,44.8-63.2ZM411.2,110.2h0c.3-.4.6-.9.8-.9.2,0,1.1-.6,1.3-.4.3.1-.5.8-2.1,1.2ZM437.2,57.8c-.2-.6-.3-1.1-.4-1.6-.2-1.3.1-1.5.4-.5.1.7.1,1.4,0,2.1ZM464.7,3.6c-.8.3-1.8.5-2.8.7.3-.2.7-.4,1.1-.6,1.8-.8,2.5-.5,1.7-.1Z"/>
    <path class="st0" d="M573.7,89.4c-1.5,10.1-1,19,0,28.1-5.9-3.2-11.8-6.3-19.2-8.8-22.3-8.1-48.1-.8-60.1,21.3-10.7,19.9-4.5,39.7-3.9,59.7,0,.6,0,1.1,0,1.4-1.6-.4-3.5-1.2-5.7-2.2-14.7-7.1-28.3-17.5-46.2-17-18.9.6-33.4,15.9-34.8,34-.9,8.3,0,15.6.8,23.2,1.3,12.2,5.1,32.8-13,27.7-12-3.7-23.3-12.7-36.4-16.9-17.7-6.2-34.9,3.9-36.3,23-.7,7.4.2,14.3.9,21,0,.4,0,.9.1,1.3,0,.6.1,1.3.2,1.9,0,0,0,0,0,0,0,0,0,.2,0,.3.1,1,.2,2,.3,3,.2,1.6.3,3.1.4,4.7.2,3.7.2,7.5-.4,11.1-.4,2.3-1,4.5-2,6.7,0,0,0,.1,0,.2-1.3,2.7-3.3,5.2-5.9,7-.2.2-.4.3-.6.4.3-.1.6-.3.9-.5.2,0,.3-.2.5-.3,2.6-1.5,4.6-3.4,6.1-5.7.7-1,1.3-2.1,1.9-3.2,0-.1.1-.3.2-.4,1.1-2.4,1.9-5.1,2.4-7.9.4-1.8.6-3.6.8-5.5.5-4.7.5-9.3.7-13.5.6-11.2-.6-26.4,10.7-31.9,14.2-6.8,33.1,17.1,48.7,23.2,14,6.8,31.5,3,40.2-10.8,7-10.9,7-25.3,7.2-36.2.1-5.8.3-12.1,1.6-17.2.6-2.1,1.3-3.5,1.9-4,.6-.5.8-.5,1.6-.7.8-.2.9.1,1.4.3,5.7,2.1,11.6,6.9,17.1,10.8,12.2,9.1,26.2,18.4,43.3,16.7,20.1-2,34.4-17.9,37.8-36.7,1.8-9,1.9-16.9,2.1-25,0-1.8.1-3.8.2-5.7,9.7,7,19,14.6,31.3,19.4,9.8,4,20,4.8,29.6,3V48.3c-14.3,9.1-23.8,24.3-26.3,41ZM491.2,191.2c.4-.2,1-.5,1.1-.3.1.1,1.2,0,1.3.3.2.2-.8.4-2.5,0ZM540.9,157.1c-.2.6-.6,1.2-1,1.8.1-.6.3-1.1.4-1.6.4-1.2.9-1.3.6-.2ZM590.9,125.6c-.9-.1-1.8-.4-2.7-.8.4,0,.8,0,1.2,0,2,.2,2.4.8,1.5.7Z"/>
    <path class="st0" d="M553.3,249.9c-19.2,11.8-23.8,32.1-33.2,49.7-.3.5-.5.9-.7,1.2-1.1-1.2-2.5-2.8-3.8-4.8-9.2-13.5-15.8-29.3-31.5-37.8-16.7-8.9-36.8-3-47.2,12.1-4.9,6.7-7.8,13.5-10.9,20.5-5,11.2-12,30.9-25.1,17.5-8.5-9.2-13.8-22.7-23-32.8-12.2-14.2-32.2-14.1-42.9,1.8-4.3,6.1-7,12.5-9.7,18.6-.2.4-.4.8-.5,1.2-.3.6-.5,1.2-.8,1.7h0s0,0,0,0c0,0,0,.2-.1.2-.4.9-.8,1.8-1.2,2.8-.6,1.4-1.3,2.9-2,4.3-1.7,3.4-3.5,6.6-5.9,9.4-1.5,1.8-3.1,3.4-5.1,4.8,0,0-.1,0-.2.1-2.5,1.7-5.5,2.8-8.6,3.1-.2,0-.5,0-.8,0,.3,0,.7,0,1,0,.1,0,.3,0,.4,0t0,0c3,0,5.7-.7,8.2-1.9,1.1-.5,2.2-1.1,3.2-1.8.1,0,.2-.2.4-.2,2.2-1.6,4.3-3.5,6.1-5.7,1.2-1.4,2.3-2.8,3.4-4.3,2.7-3.8,5.1-7.8,7.4-11.4,6.1-9.3,12.7-23.1,25.2-22.3,15.6,1.2,20.1,31.4,30.6,44.4,8.7,12.9,25.8,18.4,40.2,10.8,11.5-5.9,18.7-18.4,24.4-27.8,3-4.9,6.3-10.3,10-14.1,1.5-1.5,2.9-2.3,3.7-2.5.8-.2,1,0,1.8.2.8.3.7.5,1.1,1,3.9,4.6,6.6,11.7,9.4,17.9,6,14,13.5,29,29.1,36.1,18.4,8.3,38.8,1.7,51-12.9,6.1-6.9,10.1-13.7,14.3-20.7,1-1.6,2-3.2,3-4.8,4.9,10.9,9.2,22.2,17.4,32.5,2.6,3.4,5.6,6.3,8.8,8.9v-96.6c-14.3-7.4-31.6-8-46.7,1.2ZM520,301.4c.5,0,1.1,0,1.1.3,0,.2,1,.7,1,1,0,.3-.9,0-2.1-1.2ZM580.1,296.7c-.5.4-1.1.8-1.8,1.1.4-.4.8-.8,1.2-1.2,1-.8,1.4-.6.6,0Z"/>
    <path class="st0" d="M594.9,445.7c-.2-6.7-.5-13.4-2-21-4.2-23.4-23.4-42.1-48.5-41.5-22.6.6-36.7,15.9-53.6,26.5-.6.3-.9.5-1.2.7-.4-1.6-.7-3.7-.9-6-1.2-16.3,1-33.2-8.4-48.5-10-16.1-30.4-21-46.9-13.2-7.6,3.4-13.5,7.8-19.7,12.3-9.9,7.2-25.8,20.8-30.5,2.6-2.8-12.2-.6-26.5-3.5-39.9-3.5-18.4-20.8-28.3-38.1-19.9-6.8,3.1-12.2,7.3-17.7,11.3-.4.3-.7.5-1.1.8-.5.4-1,.7-1.5,1.1,0,0,0,0-.1,0,0,0-.1.1-.2.2-.8.6-1.6,1.2-2.5,1.8-1.3.9-2.6,1.8-3.9,2.7-3.1,2.1-6.3,3.9-9.8,5.2-2.2.8-4.4,1.4-6.8,1.6,0,0-.1,0-.2,0-3,.2-6.1-.3-9-1.6-.2,0-.5-.2-.7-.3.3.2.5.4.8.5.2.1.3.2.5.3,2.5,1.4,5.2,2.2,7.9,2.4,1.2.1,2.5.1,3.7,0h0c0,0,.2,0,.3,0t0,0c2.8-.2,5.5-.9,8.2-1.9,1.7-.6,3.4-1.3,5.1-2,4.2-1.9,8.3-4.2,12-6.2,10-5,22.6-13.7,33-6.7,12.9,8.9,1.7,37.3,4.3,53.8,1.1,15.6,13.2,28.8,29.4,29.4,12.9.6,25.4-6.6,35-11.8,5.1-2.8,10.6-5.8,15.7-7.2,2.1-.6,3.7-.6,4.4-.3.8.3.8.5,1.4,1.1.6.6.3.8.4,1.4,1.1,6-.1,13.5-.8,20.2-1.8,15.1-2.8,31.9,7.2,45.8,11.8,16.4,32.7,20.8,50.6,14.4,8.7-2.9,15.5-6.8,22.7-10.7,1.6-.9,3.3-1.8,5-2.7-1.2,11.9-3.1,23.8-1.2,36.8,4.4,30.5,33,50.7,63.2,44.8,1-.2,1.9-.3,2.8-.6v-79.2c-1.7,1.2-3.4,2.4-5.1,3.6ZM491,413.3c-.1.3-.8-.5-1.2-2.1h0c.4.2.9.6.9.8,0,.2.6,1.1.4,1.3ZM544.2,437.2c-.7.1-1.4.1-2.1,0,.5-.2,1.1-.3,1.6-.4,1.3-.2,1.5.1.5.4ZM596.4,464.7c-.3-.8-.5-1.8-.7-2.8.2.3.4.7.6,1.1.8,1.9.5,2.5.1,1.7Z"/>
    <path class="st0" d="M510.6,573.7c-10.1-1.5-19-1-28.1,0,3.2-5.9,6.3-11.8,8.8-19.2,8.1-22.3.8-48.2-21.3-60.2-19.9-10.7-39.7-4.5-59.7-3.9-.6,0-1.1,0-1.4,0,.4-1.6,1.2-3.5,2.2-5.7,7.1-14.7,17.5-28.3,17-46.2-.6-18.9-15.9-33.4-34-34.8-8.3-.9-15.6,0-23.2.8-12.2,1.3-32.8,5.1-27.7-13,3.7-12,12.7-23.3,16.9-36.4,6.2-17.7-3.9-34.9-23-36.3-7.4-.7-14.3.2-21,.9-.4,0-.9,0-1.3.1-.6,0-1.3.1-1.9.2,0,0,0,0,0,0,0,0-.2,0-.3,0-1,.1-2,.2-3,.3-1.6.2-3.1.3-4.7.4-3.7.2-7.5.2-11.1-.4-2.3-.4-4.5-1-6.7-2,0,0-.1,0-.2,0-2.7-1.3-5.2-3.3-7-5.9-.2-.2-.3-.4-.4-.6.2.3.3.6.5.9,0,.2.2.3.3.5,1.5,2.6,3.4,4.6,5.7,6.1,1,.7,2.1,1.3,3.2,1.9.1,0,.3.1.4.2,2.4,1.1,5.1,1.9,7.9,2.4,1.8.4,3.6.6,5.5.8,4.7.5,9.3.5,13.5.7,11.2.6,26.4-.6,31.9,10.7,6.8,14.2-17.1,33.1-23.2,48.7-6.8,14-3,31.5,10.8,40.2,10.9,7,25.3,7,36.2,7.2,5.8.1,12.1.3,17.1,1.6,2.1.6,3.5,1.3,4,1.9.5.6.5.8.7,1.6.2.8-.1.9-.3,1.4-2.1,5.7-6.9,11.6-10.8,17.1-9.1,12.2-18.4,26.2-16.7,43.3,2,20.1,17.9,34.4,36.7,37.8,9,1.8,16.9,1.9,25,2.1,1.8,0,3.8.1,5.7.2-7,9.7-14.6,19-19.4,31.3-4,9.8-4.8,20-3,29.6h140.6c-9.1-14.3-24.3-23.8-41.1-26.3ZM409.1,492.3c-.1.1,0,1.2-.3,1.3-.2.2-.4-.8,0-2.4.2.4.5,1,.3,1.1ZM442.9,540.9c-.7-.2-1.2-.6-1.8-1,.6.1,1.1.3,1.6.4,1.2.4,1.3.9.2.6ZM475.1,589.3c-.2,2-.8,2.4-.7,1.5.1-.9.4-1.8.8-2.7,0,.4,0,.8,0,1.2Z"/>
    <path class="st0" d="M350.1,553.3c-11.8-19.2-32.1-23.8-49.7-33.2-.5-.3-.9-.5-1.2-.7,1.2-1.1,2.8-2.5,4.8-3.8,13.5-9.2,29.3-15.8,37.8-31.5,8.9-16.7,3-36.9-12.1-47.2-6.7-4.9-13.5-7.8-20.5-10.9-11.2-5-30.9-12-17.5-25.1,9.2-8.5,22.7-13.8,32.8-23,14.2-12.2,14.1-32.2-1.8-42.9-6.1-4.3-12.4-7-18.6-9.7-.4-.2-.8-.4-1.2-.5-.6-.3-1.2-.5-1.7-.8h0s0,0,0,0c0,0-.2,0-.2-.1-.9-.4-1.8-.8-2.8-1.2-1.4-.7-2.9-1.3-4.3-2-3.4-1.7-6.6-3.5-9.4-5.9-1.8-1.5-3.4-3.1-4.8-5.1,0,0,0-.1-.1-.2-1.7-2.5-2.8-5.5-3.1-8.6,0-.2,0-.5,0-.8,0,.3,0,.7,0,1,0,.1,0,.3,0,.4t0,0c0,3,.7,5.7,1.9,8.2.5,1.1,1.1,2.2,1.8,3.2,0,.1.2.2.2.4,1.6,2.2,3.5,4.3,5.7,6.1,1.4,1.2,2.8,2.3,4.3,3.4,3.8,2.7,7.8,5.1,11.4,7.3,9.3,6.1,23.1,12.7,22.3,25.2-1.2,15.7-31.4,20.1-44.4,30.6-12.9,8.7-18.4,25.8-10.8,40.2,5.9,11.5,18.4,18.7,27.8,24.4,4.9,3,10.3,6.3,14,10,1.5,1.5,2.3,2.9,2.5,3.7.2.8,0,1-.2,1.8-.3.8-.5.7-1,1.1-4.6,3.9-11.7,6.6-17.9,9.4-14,6-29,13.5-36.1,29.1-8.3,18.4-1.7,38.8,12.9,51,6.9,6.1,13.7,10,20.7,14.3,1.6,1,3.2,2,4.8,3-10.9,4.9-22.2,9.2-32.5,17.4-3.4,2.7-6.3,5.6-8.9,8.8h96.6c7.4-14.3,8-31.6-1.2-46.7ZM298.3,521.1c-.2,0-.7,1-1,1-.3,0,0-.9,1.2-2.1,0,.5,0,1.1-.3,1.1ZM303.3,580.1c-.4-.5-.8-1.1-1.1-1.8.4.4.8.8,1.2,1.2.9,1,.7,1.4,0,.6Z"/>
    <path class="st0" d="M302.2,341.5c-3.1-6.8-7.3-12.2-11.3-17.7-.3-.4-.5-.7-.8-1.1-.4-.5-.7-1-1.1-1.5,0,0,0,0,0,0,0,0-.1-.1-.2-.2-.6-.8-1.2-1.6-1.8-2.4-.9-1.3-1.8-2.6-2.7-3.9-2.1-3.1-3.9-6.3-5.2-9.8-.8-2.2-1.4-4.4-1.6-6.8,0,0,0-.1,0-.2-.2-3,.3-6.1,1.6-9,0-.2.2-.5.3-.7-.2.3-.4.5-.5.8-.1.2-.2.3-.3.5-1.4,2.5-2.2,5.2-2.4,7.9-.1,1.2-.1,2.5,0,3.7h0c0,.1,0,.2,0,.3t0,0c.2,2.8.9,5.5,1.9,8.2.6,1.7,1.3,3.4,2,5.1,1.9,4.2,4.2,8.3,6.2,12,5,10,13.7,22.6,6.7,33-8.9,12.9-37.3,1.7-53.8,4.3-15.6,1.1-28.8,13.2-29.4,29.4-.6,12.9,6.6,25.4,11.8,35,2.8,5.1,5.8,10.6,7.2,15.7.6,2.1.6,3.7.3,4.4-.3.8-.5.8-1.1,1.4-.6.6-.8.4-1.4.5-6,1-13.5-.1-20.2-.8-15.2-1.8-31.9-2.8-45.8,7.2-16.4,11.8-20.8,32.7-14.4,50.6,2.9,8.7,6.8,15.5,10.7,22.7.9,1.6,1.8,3.3,2.7,5-11.9-1.2-23.8-3.1-36.8-1.2-30.5,4.3-50.7,33-44.8,63.2.2,1,.4,1.9.6,2.9h79.2c-1.2-1.7-2.4-3.4-3.6-5.1,6.7-.2,13.4-.5,21-2,23.3-4.2,42.1-23.4,41.5-48.5-.6-22.6-15.9-36.7-26.5-53.6-.3-.5-.5-.9-.7-1.2,1.6-.4,3.7-.7,6-.9,16.3-1.2,33.2,1,48.5-8.4,16.1-10,21-30.4,13.2-46.9-3.4-7.6-7.8-13.5-12.3-19.7-7.2-9.9-20.8-25.9-2.6-30.5,12.2-2.8,26.5-.6,40-3.5,18.4-3.5,28.3-20.8,19.9-38.1ZM137,596.3c-1.8.8-2.5.4-1.7.1.8-.3,1.8-.5,2.8-.7-.3.2-.7.4-1.1.6ZM162.8,544.2c-.1-.7-.1-1.4,0-2.1.2.5.3,1.1.4,1.6.2,1.3-.1,1.5-.4.5ZM188,490.6c-.2,0-1.1.6-1.3.4-.3-.1.5-.8,2.1-1.2h0c-.3.4-.6.9-.8.9Z"/>
    <path class="st0" d="M287.2,279.9c-.2,0-.3.2-.5.3-2.6,1.5-4.6,3.4-6.1,5.7-.7,1-1.3,2.1-1.9,3.2,0,.1-.1.3-.2.4-1.1,2.4-1.9,5.1-2.4,7.9-.4,1.8-.6,3.6-.8,5.5-.5,4.6-.5,9.3-.7,13.5-.6,11.2.6,26.4-10.7,31.9-14.2,6.8-33.1-17.1-48.7-23.1-14-6.8-31.5-3-40.2,10.8-7,10.9-7,25.3-7.2,36.2-.1,5.8-.3,12.1-1.6,17.1-.6,2.1-1.3,3.5-1.9,4-.6.5-.8.5-1.6.7-.8.2-.9-.1-1.4-.3-5.7-2.1-11.6-6.9-17.1-10.8-12.2-9.1-26.2-18.4-43.3-16.7-20.1,2-34.4,17.9-37.8,36.7-1.8,9-1.9,16.9-2.1,25.1,0,1.8-.1,3.8-.2,5.7-9.7-7-19-14.6-31.3-19.4-9.8-4-20-4.8-29.6-3.1v140.6c14.3-9.1,23.8-24.3,26.3-41,1.5-10.1,1-19,0-28.1,5.9,3.2,11.8,6.3,19.2,8.8,22.3,8.1,48.1.8,60.1-21.3,10.7-19.9,4.5-39.7,3.9-59.7,0-.6,0-1.1,0-1.4,1.6.4,3.5,1.2,5.7,2.2,14.7,7.1,28.3,17.5,46.2,17,18.9-.6,33.4-15.9,34.8-34,.9-8.3,0-15.6-.8-23.2-1.3-12.2-5.1-32.8,13-27.7,12,3.7,23.3,12.7,36.4,16.9,17.7,6.2,34.9-3.9,36.3-23,.7-7.4-.2-14.3-.9-21,0-.4,0-.9-.1-1.3,0-.6-.1-1.3-.2-1.9,0,0,0,0,0,0,0,0,0-.2,0-.3-.1-1-.2-2-.3-3-.2-1.6-.3-3.2-.4-4.7-.2-3.7-.2-7.5.4-11.1.4-2.3,1-4.5,2-6.7,0,0,0-.1,0-.2,1.3-2.7,3.3-5.2,5.9-7,.2-.2.4-.3.6-.4-.3.2-.6.3-.9.5ZM10.7,475.1c-2-.2-2.4-.8-1.5-.7.9.1,1.8.4,2.7.8-.4,0-.8,0-1.2,0ZM59.6,442.7c-.4,1.2-.9,1.3-.6.2.2-.7.6-1.2,1-1.8-.1.6-.3,1.1-.4,1.6ZM107.7,409.1c-.1-.1-1.2,0-1.3-.3-.2-.2.8-.4,2.5,0-.4.2-1,.5-1.1.3Z"/>
    <path class="st0" d="M299,276.2c-.1,0-.3,0-.4,0t0,0c-3,0-5.7.7-8.2,1.9-1.1.5-2.2,1.1-3.2,1.9-.1,0-.2.2-.4.2-2.2,1.6-4.3,3.5-6.1,5.7-1.2,1.4-2.3,2.8-3.4,4.3-2.7,3.8-5.1,7.8-7.4,11.4-6.1,9.3-12.7,23.1-25.2,22.3-15.6-1.2-20.1-31.4-30.6-44.4-8.7-12.9-25.8-18.4-40.2-10.8-11.5,5.9-18.7,18.4-24.4,27.8-3,4.9-6.3,10.3-10,14-1.5,1.5-2.9,2.3-3.7,2.5-.8.2-1,0-1.8-.2-.8-.3-.7-.5-1.1-1-3.9-4.6-6.6-11.7-9.4-17.9-6-14-13.5-29-29.1-36.1-18.4-8.3-38.8-1.7-51,12.9-6.1,6.9-10.1,13.7-14.3,20.7-1,1.6-2,3.2-3,4.8-4.9-10.9-9.2-22.2-17.4-32.5-2.6-3.4-5.6-6.3-8.8-8.9v96.6c14.3,7.4,31.6,8,46.7-1.2,19.2-11.8,23.8-32.1,33.2-49.7.3-.5.5-.9.7-1.2,1.1,1.2,2.5,2.8,3.8,4.8,9.2,13.5,15.8,29.3,31.5,37.8,16.7,8.9,36.8,3,47.2-12.1,4.9-6.7,7.8-13.5,10.9-20.5,5-11.2,12-30.9,25.1-17.5,8.5,9.2,13.8,22.7,23,32.8,12.2,14.2,32.2,14.1,42.9-1.8,4.3-6.1,7-12.5,9.7-18.6.2-.4.4-.8.5-1.2.3-.6.5-1.2.8-1.7h0s0,0,0,0c0,0,0-.2.1-.2.4-.9.8-1.9,1.2-2.8.6-1.4,1.3-2.9,2-4.3,1.7-3.4,3.5-6.6,5.9-9.4,1.5-1.8,3.1-3.4,5.1-4.8,0,0,.1,0,.2-.1,2.5-1.7,5.5-2.8,8.6-3.1.2,0,.5,0,.8,0-.3,0-.7,0-1,0ZM20.5,303.4c-1,.8-1.4.7-.6,0,.5-.4,1.1-.8,1.8-1.1-.4.4-.8.8-1.2,1.2ZM78.9,298.3c0-.2-1-.6-1-.9,0-.3.9,0,2.1,1.2-.5,0-1.1,0-1.1-.3Z"/>
    <path class="st0" d="M311.1,278.9c-.2-.1-.3-.2-.5-.3-2.5-1.4-5.2-2.2-7.9-2.4-1.2-.1-2.5-.1-3.7,0h0c0,0-.2,0-.3,0t0,0c-2.8.2-5.5.9-8.2,1.9-1.7.6-3.4,1.3-5.1,2-4.2,1.9-8.3,4.2-12,6.2-10,5-22.6,13.7-33,6.7-12.9-8.9-1.7-37.3-4.3-53.8-1.1-15.6-13.2-28.8-29.4-29.4-12.9-.6-25.4,6.6-35,11.8-5.1,2.8-10.6,5.8-15.7,7.2-2.1.6-3.7.6-4.4.3-.8-.3-.8-.5-1.4-1.1-.6-.6-.3-.8-.4-1.4-1.1-6,.1-13.5.8-20.2,1.8-15.2,2.8-31.9-7.2-45.8-11.8-16.4-32.7-20.8-50.6-14.4-8.7,2.9-15.5,6.8-22.7,10.7-1.6.9-3.3,1.8-5,2.7,1.2-11.9,3.1-23.8,1.2-36.8-4.4-30.5-33-50.7-63.2-44.8-1,.2-1.9.4-2.8.6v79.2c1.7-1.2,3.4-2.4,5.1-3.6.2,6.7.5,13.4,2,21,4.2,23.3,23.4,42.1,48.5,41.5,22.6-.6,36.7-15.9,53.6-26.5.6-.3.9-.5,1.2-.7.4,1.6.7,3.7.9,6,1.2,16.3-1,33.2,8.4,48.5,10,16.1,30.4,21,46.9,13.2,7.6-3.4,13.5-7.8,19.7-12.3,9.9-7.2,25.8-20.8,30.5-2.6,2.8,12.2.6,26.5,3.5,40,3.5,18.4,20.8,28.3,38.1,19.9,6.8-3.1,12.2-7.3,17.7-11.3.4-.3.7-.5,1.1-.8.5-.4,1-.7,1.5-1.1,0,0,0,0,.1,0,0,0,.1-.1.2-.2.8-.6,1.6-1.2,2.5-1.8,1.3-.9,2.6-1.8,3.9-2.7,3.1-2.1,6.3-3.9,9.8-5.2,2.2-.8,4.4-1.4,6.8-1.6,0,0,.1,0,.2,0,3-.2,6.1.3,9,1.6.2,0,.5.2.7.3-.3-.2-.5-.4-.8-.5ZM3.7,137c-.8-1.8-.5-2.5-.1-1.7.3.8.5,1.8.7,2.8-.2-.3-.4-.7-.6-1.1ZM56.2,163.2c-1.3.2-1.5-.1-.5-.4.7-.1,1.4-.1,2.1,0-.5.2-1.1.3-1.6.4ZM110.2,188.8c-.4-.3-.9-.6-.9-.8,0-.2-.6-1.1-.4-1.3.1-.3.8.5,1.2,2.1h0Z"/>
    <path class="st0" d="M320.1,287.2c0-.2-.2-.3-.3-.5-1.5-2.6-3.4-4.6-5.7-6.1-1-.7-2.1-1.3-3.2-1.9-.1,0-.3-.1-.4-.2-2.4-1.1-5.1-1.9-7.9-2.4-1.8-.4-3.6-.6-5.5-.8-4.7-.5-9.3-.5-13.5-.7-11.2-.7-26.4.6-31.9-10.7-6.8-14.2,17.1-33.1,23.2-48.7,6.8-14,3-31.5-10.8-40.2-10.9-7-25.3-7-36.2-7.2-5.8-.1-12.1-.3-17.1-1.6-2.1-.6-3.5-1.3-4-1.9-.5-.6-.5-.9-.7-1.6-.2-.8.1-.9.3-1.4,2.1-5.7,6.9-11.6,10.8-17.1,9.1-12.2,18.4-26.2,16.7-43.3-2-20.1-17.9-34.4-36.7-37.8-9-1.8-16.9-1.9-25-2.1-1.8,0-3.8-.1-5.7-.2,7-9.7,14.6-19,19.4-31.3,4-9.8,4.8-20,3-29.6H48.3c9.1,14.3,24.3,23.8,41.1,26.3,10.1,1.5,19,1,28.1,0-3.2,5.9-6.3,11.8-8.8,19.2-8.1,22.3-.8,48.2,21.3,60.2,19.9,10.7,39.7,4.5,59.7,3.9.6,0,1.1,0,1.4,0-.4,1.6-1.2,3.5-2.2,5.7-7.1,14.7-17.5,28.3-17,46.2.6,18.9,15.9,33.4,34,34.8,8.3.9,15.6,0,23.2-.8,12.2-1.3,32.8-5.1,27.7,13-3.7,12-12.7,23.3-16.9,36.4-6.2,17.7,3.9,34.9,23,36.3,7.4.7,14.3-.2,21-.9.4,0,.9,0,1.3-.1.6,0,1.3-.1,1.9-.2,0,0,0,0,0,0,0,0,.2,0,.3,0,1-.1,2-.2,3-.3,1.6-.2,3.1-.3,4.7-.4,3.7-.2,7.5-.2,11.1.4,2.3.4,4.5,1,6.7,2,0,0,.1,0,.2,0,2.7,1.3,5.2,3.3,7,5.9.2.2.3.4.4.6-.2-.3-.3-.6-.5-.9ZM125.6,9.1c-.1.9-.4,1.8-.8,2.7,0-.4,0-.8,0-1.2.2-2,.8-2.3.7-1.5ZM157.3,59.6c-1.2-.4-1.3-.9-.2-.6.7.2,1.2.6,1.8,1-.6-.1-1.1-.3-1.6-.4ZM191.2,108.8c-.2-.4-.5-1-.3-1.1.1-.2,0-1.2.3-1.3.2-.2.4.8,0,2.5Z"/>
    <path class="st0" d="M288.3,133.1c4.6-3.9,11.7-6.6,17.9-9.4,14-6,29-13.5,36.1-29.1,8.3-18.4,1.7-38.8-12.9-51-6.9-6.1-13.7-10-20.7-14.3-1.6-1-3.2-2-4.8-3,10.9-4.9,22.2-9.2,32.5-17.4,3.4-2.6,6.3-5.6,8.9-8.8h-96.6c-7.4,14.3-8,31.6,1.2,46.7,11.8,19.2,32.1,23.8,49.7,33.2.5.3.9.5,1.2.7-1.2,1.1-2.8,2.5-4.8,3.8-13.5,9.2-29.3,15.8-37.8,31.5-8.9,16.7-3,36.8,12.1,47.2,6.7,4.9,13.5,7.8,20.5,10.9,11.2,5,30.9,12,17.5,25.1-9.2,8.5-22.7,13.8-32.8,23-14.2,12.2-14.1,32.1,1.8,42.9,6.1,4.3,12.4,7,18.6,9.7.4.2.8.4,1.2.5.6.3,1.2.5,1.7.8h0s0,0,0,0c0,0,.2,0,.2,0,.9.4,1.8.8,2.8,1.2,1.4.7,2.9,1.3,4.3,2,3.4,1.7,6.6,3.5,9.4,5.9,1.8,1.5,3.4,3.1,4.8,5.1,0,0,0,.1.1.2,1.7,2.5,2.8,5.5,3.1,8.6,0,.2,0,.5,0,.8,0-.3,0-.7,0-1,0-.1,0-.3,0-.4h0c0-3-.7-5.8-1.9-8.3-.5-1.1-1.1-2.2-1.8-3.2,0-.1-.2-.2-.2-.4-1.6-2.2-3.5-4.3-5.7-6.1-1.4-1.2-2.8-2.3-4.3-3.4-3.8-2.7-7.8-5.1-11.4-7.4-9.3-6.1-23.1-12.7-22.3-25.2,1.2-15.6,31.4-20.1,44.4-30.6,12.9-8.7,18.4-25.8,10.8-40.2-5.9-11.5-18.4-18.7-27.8-24.4-4.9-3-10.3-6.3-14-10-1.5-1.5-2.3-2.9-2.5-3.7-.2-.8,0-1,.2-1.8.3-.8.5-.7,1-1.1ZM296.6,20.5c-.9-1-.7-1.4,0-.6.4.5.8,1.1,1.1,1.8-.4-.4-.8-.8-1.2-1.2ZM301.7,78.9c.2,0,.7-1,1-1,.3,0,0,.9-1.2,2.1,0-.5,0-1.1.3-1.1Z"/>
  </g>
</svg>